<svg viewBox="0 0 1913 1582" xmlns="http://www.w3.org/2000/svg" fill-rule="evenodd" clip-rule="evenodd" stroke-linejoin="round" stroke-miterlimit="1.4">
  <defs>
    <style type="text/css">
    <![CDATA[

    .yo {
      transform: rotateZ();
    }
    ]]>
  </style>
  
  </defs>  
    <path fill="none" d="M0 0h1912.8v1582H0z"/>
  <circle class="yo" cx="1161.4" cy="769.6" r="75.5" transform="matrix(.92124 0 0 .88116 88.2 85.5)"/>
  <path class="yo" d="M1199 796a52.1 52.1 0 0 0-57.8-81.8l8.5 24.7a26 26 0 0 1 28.8 41L1199 796zM1110 783.7a52.2 52.2 0 0 0 81.2 20.2l-16.5-20.1a26 26 0 0 1-40.6-10.2l-24.1 10zM1130.9 719.1A52.2 52.2 0 0 0 1107 774l25.6-5.2a26.1 26.1 0 0 1 12-27.4l-13.7-22.2z" fill="#e63946"/>
  <path class="yo" d="M1158.1 697c38.4 0 69.6 29.9 69.6 66.6 0 36.7-31.2 66.5-69.6 66.5-38.3 0-69.5-29.8-69.5-66.5s31.2-66.6 69.5-66.6zm0 7.4a60.5 60.5 0 0 1 61.9 59.2 60.5 60.5 0 0 1-61.9 59.1 60.5 60.5 0 0 1-61.8-59.1 60.5 60.5 0 0 1 61.8-59.2z" fill="#e63946"/>
</svg>
